# Exported from Figuro at https://www.figuro.io

mtllib newscene.mtl
o driftwood_plank_2
v -444.20104245 -104.90202387 -22.68430147302069
v -465.52052268 96.77158142 74.86358175914778
v -455.86579196 -102.01691641 76.13012053412334
v 473.62504659 -76.01084226 -79.78256095129284
v -454.43753068 100.18566442 -21.091476061339137
v 456.12996079 71.86188234 128.8603157042876
v 447.68966531 -102.67008608 11.409404239621708
v 456.66764165 108.98221701 42.55724519543412
# 8 vertices
vt 0.00644329 -0.02451011999999997
vt -0.01724503 0.98385791
vt -0.00651755 -0.01008458000000001
vt 0.00644329 -0.02451011999999997
vt -0.00651755 -0.01008458000000001
vt 1.02625005 0.11994579000000005
vt -0.00493059 1.00092832
vt -0.01724503 0.98385791
vt 0.00644329 -0.02451011999999997
vt 0.00644329 -0.02451011999999997
vt 1.02625005 0.11994579000000005
vt -0.00493059 1.00092832
vt -0.01724503 0.98385791
vt 1.00681107 0.85930941
vt -0.00651755 -0.01008458000000001
vt 1.02625005 0.11994579000000005
vt -0.00651755 -0.01008458000000001
vt 0.99743296 -0.013350430000000024
vt -0.00651755 -0.01008458000000001
vt 1.00681107 0.85930941
vt 0.99743296 -0.013350430000000024
vt -0.00493059 1.00092832
vt 1.00681107 0.85930941
vt -0.01724503 0.98385791
vt -0.00493059 1.00092832
vt 1.02625005 0.11994579000000005
vt 1.00740849 1.04491109
vt 1.00740849 1.04491109
vt 1.00681107 0.85930941
vt -0.00493059 1.00092832
vt 1.02625005 0.11994579000000005
vt 0.99743296 -0.013350430000000024
vt 1.00740849 1.04491109
vt 1.00740849 1.04491109
vt 0.99743296 -0.013350430000000024
vt 1.00681107 0.85930941
# 36 uvs
vn -0.5032088249788693 -0.2729440313049242 -0.29923121481918386
vn -0.504436372878567 0.22623719175559037 0.20117376501217452
vn -0.1958657288324659 -0.5123098727015218 0.2913048103826815
vn 0.19349193556041308 -0.29519229604699954 -0.36603000438505023
vn -0.20265228642188998 0.4854582842765193 -0.30240221444755716
vn 0.1975708174960927 0.2641143314895341 0.44938882898994725
vn 0.5003601736398655 -0.4089818061887654 0.19527194551721702
vn 0.4950119473455189 0.3384095785463536 -0.04894113246743767
# 8 normals
usemtl orangewood
f 3/36/3 2/35/2 1/34/1 
f 4/36/4 3/35/3 1/34/1 
f 1/36/1 2/35/2 5/34/5 
f 5/36/5 4/35/4 1/34/1 
f 3/36/3 6/35/6 2/34/2 
f 7/36/7 3/35/3 4/34/4 
f 7/36/7 6/35/6 3/34/3 
f 2/36/2 6/35/6 5/34/5 
f 8/36/8 4/35/4 5/34/5 
f 5/36/5 6/35/6 8/34/8 
f 8/36/8 7/35/7 4/34/4 
f 6/36/6 7/35/7 8/34/8 
# 12 polygons